<?xml version="1.0" standalone="no"?>
<!DOCTYPE svg PUBLIC "-//W3C//DTD SVG 20010904//EN"
 "http://www.w3.org/TR/2001/REC-SVG-20010904/DTD/svg10.dtd">
<svg version="1.0" xmlns="http://www.w3.org/2000/svg"
 width="600.000000pt" height="316.000000pt" viewBox="0 0 600.000000 316.000000"
 preserveAspectRatio="xMidYMid meet">
<g transform="translate(0.000000,316.000000) scale(0.100000,-0.100000)"
fill="#000000" stroke="none">
<path d="M2548 2343 c-13 -17 -17 -284 -4 -302 8 -11 8 -13 -1 -7 -9 5 -11 2
-7 -8 4 -9 1 -16 -6 -16 -10 0 -10 -3 0 -15 20 -24 3 -18 -20 7 -19 21 -23 22
-48 7 -15 -8 -27 -20 -27 -26 0 -6 -4 -15 -9 -20 -6 -5 -6 -2 -1 7 5 9 5 12
-1 7 -5 -5 -10 -13 -10 -18 -1 -5 -2 -12 -3 -15 0 -4 -9 0 -18 7 -13 11 -15
11 -9 1 5 -9 1 -19 -12 -28 -12 -8 -19 -21 -16 -29 7 -18 -7 -19 -26 -2 -12
10 -12 9 -1 -5 7 -10 10 -18 6 -18 -4 0 -2 -6 4 -13 6 -8 7 -18 3 -22 -4 -5
-1 -5 6 -1 7 5 10 13 5 20 -4 7 0 3 10 -7 9 -11 17 -26 17 -34 0 -8 4 -12 9
-8 12 7 21 -7 27 -41 3 -19 1 -24 -8 -18 -9 5 -8 2 2 -10 13 -17 15 -17 32 4
17 21 23 19 18 -5 -1 -5 2 -7 6 -3 4 4 14 2 22 -5 10 -8 13 -8 9 -1 -8 14 20
27 35 18 10 -7 6 -137 -6 -196 -15 -73 -15 -78 12 -99 14 -11 34 -18 44 -16
10 3 18 1 18 -4 0 -16 28 -10 34 7 5 13 9 14 21 4 20 -17 45 -5 45 21 0 17 3
19 14 10 8 -7 13 -20 11 -30 -2 -11 3 -17 15 -17 10 0 16 4 14 8 -8 13 10 9
36 -9 14 -9 20 -10 13 -3 -9 10 -7 16 8 29 19 15 40 89 22 78 -5 -3 -15 3 -22
15 -9 15 -10 18 0 13 7 -5 10 -4 6 2 -4 6 -6 59 -7 119 0 134 1 144 12 138 5
-3 6 -10 3 -15 -4 -5 -1 -9 5 -9 7 0 41 -29 77 -65 36 -36 69 -65 75 -65 5 0
7 -4 4 -9 -4 -5 2 -8 11 -6 10 2 23 4 29 4 7 1 14 10 17 22 4 16 11 19 29 14
13 -3 18 -3 11 2 -14 10 10 48 25 39 5 -3 16 2 23 12 13 15 12 16 -3 3 -22
-16 -24 1 -3 19 8 6 20 8 26 4 7 -4 9 -3 5 4 -3 6 4 22 16 35 l23 25 0 -138
c0 -87 -4 -142 -11 -151 -23 -29 -25 -55 -4 -77 12 -12 25 -22 31 -22 6 0 8
-4 5 -9 -4 -5 4 -7 16 -4 22 4 23 4 4 -11 -11 -9 -15 -16 -9 -16 12 0 35 24
29 31 -2 2 8 15 21 29 14 14 23 18 21 10 -5 -17 18 -44 31 -36 5 4 12 0 14 -6
3 -8 6 -6 6 5 1 9 6 17 12 17 5 0 7 5 3 12 -4 7 7 2 24 -11 27 -19 37 -21 62
-13 21 8 30 7 34 -1 3 -7 3 -1 0 12 -4 14 -2 21 4 17 5 -3 12 3 15 14 3 11 1
18 -4 14 -5 -3 -9 1 -9 10 0 8 -3 22 -7 32 -5 13 -3 15 7 9 9 -5 11 -4 6 4 -4
6 -11 9 -16 6 -8 -5 -19 181 -12 198 2 4 16 -2 32 -13 24 -17 29 -18 40 -6 6
8 20 13 31 11 11 -2 17 0 14 6 -4 5 -11 7 -16 4 -5 -4 -9 -1 -9 4 0 10 14 15
33 12 5 -1 6 2 3 7 -3 5 1 17 8 28 11 15 17 16 29 6 20 -17 38 6 31 39 -11 48
-9 64 6 61 8 -2 11 0 7 5 -5 4 -14 8 -20 8 -7 1 -11 7 -9 14 1 7 -2 10 -8 6
-6 -3 -8 -11 -5 -16 8 -11 -6 -12 -24 0 -7 5 -10 14 -7 20 4 6 4 11 -1 10 -25
-4 -35 2 -28 19 12 28 14 63 4 56 -5 -3 -7 -9 -4 -14 8 -12 -6 -41 -16 -34 -5
3 -8 11 -7 17 2 7 -2 12 -7 12 -6 0 -9 -4 -7 -8 1 -5 -2 -6 -8 -2 -5 3 -16 3
-22 -2 -7 -4 -16 -8 -20 -8 -12 0 -10 -12 7 -45 9 -18 21 -28 27 -24 6 4 8 3
5 -3 -4 -6 0 -14 9 -17 8 -3 12 -11 8 -17 -4 -7 -3 -9 3 -6 6 4 13 1 16 -6 3
-7 -17 -35 -43 -61 l-48 -47 -4 29 c-2 17 -1 38 2 48 4 11 4 47 1 82 -4 36 -3
66 3 72 7 7 6 10 -3 10 -7 0 -9 5 -6 10 5 8 12 7 23 -2 15 -12 16 -11 3 4 -7
10 -16 16 -20 14 -3 -2 -6 20 -6 48 0 41 -3 53 -15 52 -8 -1 -14 5 -12 12 2
10 -2 10 -18 2 -11 -6 -20 -13 -20 -16 0 -3 6 -2 13 2 6 4 4 -1 -5 -12 -15
-18 -17 -39 -13 -174 2 -84 2 -157 -2 -163 -13 -21 -33 72 -33 153 0 114 -1
118 -19 115 -9 -2 -23 -4 -31 -5 -10 -1 -11 -3 -3 -6 18 -8 -18 -41 -39 -36
-14 3 -9 11 22 37 21 18 36 35 33 39 -4 3 -1 6 5 6 13 0 72 58 72 71 0 6 5 7
10 4 6 -3 10 -1 10 5 0 6 5 8 10 5 6 -3 10 0 10 8 0 8 7 20 15 27 9 7 14 19
11 26 -2 6 -2 15 2 18 9 10 11 36 2 36 -4 0 -6 8 -3 19 9 36 -18 47 -110 45
-48 -2 -92 -6 -98 -10 -8 -5 -9 -3 -4 7 8 12 6 12 -8 0 -9 -7 -17 -10 -17 -5
0 4 -18 -11 -40 -35 -22 -23 -40 -40 -40 -36 0 3 -6 0 -14 -7 -8 -7 -13 -15
-13 -18 1 -3 -28 -35 -64 -72 -37 -37 -64 -70 -60 -74 3 -4 0 -4 -7 0 -7 4
-10 11 -7 16 2 4 -9 23 -25 41 -16 19 -30 40 -30 46 0 7 -3 12 -7 11 -20 -4
-41 15 -36 30 4 9 2 14 -2 9 -5 -4 -17 5 -27 20 -10 16 -18 22 -18 14 0 -11
-3 -11 -15 -1 -8 7 -15 18 -15 26 0 7 -9 16 -20 19 -11 3 -20 9 -20 13 0 13
-211 8 -222 -5z m901 -56 l0 -53 -204 -204 c-112 -112 -202 -207 -199 -212 3
-4 0 -17 -6 -28 -8 -15 -19 -20 -37 -18 -55 7 -56 67 -1 78 16 3 102 80 222
196 178 174 196 194 196 225 l0 34 -82 -2 c-93 -2 -80 6 -247 -166 -58 -60
-88 -84 -95 -77 -7 7 29 50 119 140 l129 129 101 4 c55 1 101 4 101 5 1 1 2
-22 3 -51z m-579 -62 c58 -58 100 -105 95 -105 -5 0 -4 -5 3 -12 9 -9 8 -16
-5 -30 -17 -19 -33 -24 -33 -9 0 5 9 11 20 14 17 4 3 22 -87 111 l-108 106
-77 0 c-43 0 -80 0 -83 0 -3 0 -6 -172 -5 -382 0 -332 2 -384 16 -399 33 -37
-23 -90 -61 -59 -19 16 -19 59 0 66 13 5 15 60 15 405 l0 399 103 0 102 0 105
-105z m-213 52 c6 2 14 -1 18 -6 4 -7 -1 -8 -12 -4 -10 3 -15 3 -11 -2 4 -4 3
-14 -3 -22 -9 -10 -8 -17 1 -28 7 -9 10 -18 6 -22 -3 -3 -6 0 -6 7 0 7 -3 10
-7 6 -4 -4 3 -16 17 -26 24 -18 24 -19 5 -40 -13 -14 -20 -37 -21 -68 0 -26
-5 -56 -9 -66 -6 -14 -5 -17 3 -12 9 5 10 1 4 -16 -4 -13 -7 -36 -5 -53 1 -16
4 -51 6 -77 3 -36 0 -51 -13 -63 -15 -14 -16 3 -17 245 -1 238 0 259 16 251 9
-4 21 -6 28 -4z m734 -4 c-11 -5 -11 -7 0 -14 11 -6 9 -12 -8 -28 -21 -20 -22
-20 -20 -1 1 10 5 16 11 13 5 -3 6 -1 2 6 -4 6 -11 9 -15 6 -5 -2 -16 2 -26 9
-17 12 -14 14 26 14 24 0 38 -3 30 -5z m-642 -32 c6 -10 7 -21 4 -25 -3 -3 1
-14 11 -25 15 -16 15 -19 1 -24 -8 -4 -15 -2 -15 3 0 6 -13 10 -28 10 -31 0
-52 16 -52 40 0 39 61 56 79 21z m581 -1 c7 -14 7 -26 1 -39 -6 -10 -8 -20 -6
-23 3 -2 -9 -2 -26 0 -23 3 -36 -1 -52 -19 -12 -13 -21 -27 -19 -32 5 -17 -19
-46 -43 -49 -16 -2 -73 -51 -160 -138 l-136 -135 57 -53 57 -53 89 88 c65 65
88 82 88 68 0 -12 -36 -56 -88 -108 l-88 -88 -157 156 c-86 85 -158 155 -160
155 -1 0 -1 -31 1 -70 3 -59 1 -70 -12 -70 -14 0 -16 16 -16 102 l0 103 105
-105 105 -105 57 58 58 57 -64 64 c-42 42 -69 62 -81 59 -21 -6 -50 22 -50 48
0 11 11 24 25 31 21 9 28 8 45 -7 12 -10 18 -25 15 -33 -3 -9 20 -38 62 -78
l68 -64 68 68 c56 55 68 72 64 94 -2 15 0 25 4 22 4 -2 11 1 14 6 4 6 17 10
30 8 29 -4 65 28 65 57 0 44 60 63 80 25z m-97 -30 c-3 -10 -8 -19 -12 -18
-18 2 -32 -3 -27 -10 2 -4 -4 -8 -14 -8 -17 0 -17 2 2 29 16 22 23 26 29 15 7
-10 9 -9 9 5 0 10 4 16 9 13 5 -3 7 -15 4 -26z m-402 -16 c24 -26 28 -33 12
-25 -25 13 -44 14 -40 3 1 -4 -8 -18 -20 -32 -27 -28 -30 -20 -7 15 13 20 14
28 4 40 -11 14 -6 35 9 35 4 0 23 -16 42 -36z m461 -44 c-13 -10 -22 -22 -22
-27 1 -4 -3 -9 -9 -11 -6 -2 -11 -1 -11 3 0 8 51 55 59 55 3 -1 -4 -9 -17 -20z
m-561 -20 c10 -6 19 -21 19 -33 0 -14 28 -50 76 -99 42 -43 78 -78 80 -78 13
0 -1 27 -31 63 -19 22 -35 48 -35 56 1 14 3 13 14 -1 7 -10 18 -18 25 -18 6 0
11 -5 11 -11 0 -5 -6 -7 -12 -4 -7 4 -4 0 6 -9 10 -8 24 -12 30 -9 6 4 4 -2
-4 -12 -14 -17 -13 -18 2 -13 9 4 23 -1 33 -12 16 -17 15 -19 -5 -30 -35 -19
-69 -3 -142 68 -39 38 -78 67 -90 67 -11 0 -27 9 -34 20 -12 18 -11 24 2 43
17 25 27 27 55 12z m379 -31 c-12 -16 -28 -29 -36 -29 -8 0 -13 -3 -11 -8 3
-4 -11 -23 -30 -42 -33 -34 -35 -34 -48 -16 -8 10 -12 23 -8 29 3 6 1 7 -5 3
-11 -7 -28 11 -19 20 10 10 48 -17 41 -28 -14 -22 20 6 71 58 53 54 80 63 45
13z m340 -271 c0 -252 2 -294 16 -309 33 -37 -23 -91 -61 -59 -19 16 -19 54 0
70 13 11 15 57 15 300 0 157 3 290 6 293 20 20 24 -31 24 -295z m-535 282 c-3
-6 4 -10 16 -10 22 0 22 0 3 -14 -22 -17 -40 -6 -31 18 4 9 9 16 12 16 4 0 3
-4 0 -10z m253 -90 c-7 -12 -26 -28 -43 -36 -16 -7 -25 -13 -18 -14 6 0 -12
-22 -40 -49 -28 -27 -56 -47 -61 -43 -5 3 -2 8 8 12 10 3 18 10 18 15 1 19 37
57 47 50 6 -3 8 0 5 9 -3 9 3 17 16 21 12 4 25 17 30 31 6 15 15 22 25 18 8
-4 15 -1 15 7 0 7 3 10 6 7 3 -3 -1 -16 -8 -28z m-426 -12 c16 -15 34 -28 39
-28 5 0 15 -13 24 -30 9 -16 22 -30 30 -30 8 0 15 -6 15 -14 0 -18 27 -29 36
-14 4 6 3 8 -4 4 -6 -3 -13 -2 -16 3 -4 5 2 8 11 6 10 -2 25 -4 33 -5 13 -1
13 -2 0 -7 -8 -4 -21 -12 -28 -19 -10 -11 -16 -10 -31 4 -10 9 -16 20 -14 25
4 7 -13 11 -32 7 -5 -1 -7 2 -3 5 4 4 -11 25 -33 46 -22 22 -37 39 -33 39 4 0
-1 6 -11 14 -11 8 -23 12 -27 10 -4 -2 -9 -1 -12 4 -12 21 28 6 56 -20z m608
-98 c0 -66 4 -120 9 -120 13 0 21 -27 14 -46 -8 -21 -44 -34 -65 -22 -22 11
-23 51 -3 68 11 9 15 34 15 98 l0 86 -35 -34 -35 -34 0 -185 c0 -160 2 -187
17 -203 13 -14 14 -23 7 -35 -18 -29 -42 -39 -61 -27 -24 15 -29 62 -9 70 14
5 16 33 16 197 l0 192 58 57 c31 32 60 58 65 58 4 0 7 -54 7 -120z m-95 72
c-11 -9 -28 -30 -38 -45 -10 -15 -23 -25 -29 -21 -7 5 -8 2 -2 -7 14 -23 13
-38 -2 -32 -8 3 -21 0 -29 -7 -8 -7 -15 -9 -15 -6 0 4 -7 1 -15 -8 -8 -8 -15
-20 -15 -27 0 -8 -4 -8 -15 1 -15 13 -15 22 2 22 14 0 33 20 27 29 -3 5 -1 8
4 7 9 -3 108 93 105 102 -1 3 8 7 20 7 22 2 22 2 2 -15z m-751 -1 c3 -5 -19
-31 -48 -59 -50 -47 -53 -52 -37 -67 10 -8 21 -12 25 -8 4 5 6 1 4 -7 -2 -9 3
-14 12 -12 8 2 12 0 7 -4 -4 -4 5 -20 19 -36 24 -24 25 -28 10 -34 -9 -4 -18
-5 -19 -3 -1 3 -27 30 -57 62 l-54 57 59 60 c60 61 70 67 79 51z m1071 -41
c26 -27 51 -47 55 -45 3 2 6 -4 7 -14 2 -23 -106 -129 -130 -128 -13 0 -2 16
40 59 l57 58 -52 53 c-29 29 -52 56 -52 60 0 19 31 2 75 -43z m-1039 -62 c-1
-72 -4 -92 -16 -96 -8 -3 -12 -2 -9 2 8 8 -56 76 -71 76 -22 0 -8 22 20 33 17
6 30 15 30 20 0 4 -6 5 -12 1 -7 -4 -3 3 9 15 26 25 38 27 29 5 -3 -9 -2 -12
5 -9 6 4 8 13 5 20 -4 11 1 25 9 25 2 0 2 -41 1 -92z m237 -38 c14 -20 17 -50
17 -163 0 -110 3 -142 15 -153 8 -9 15 -22 15 -29 0 -18 -27 -45 -45 -45 -18
0 -45 27 -45 45 0 7 7 20 15 29 12 12 15 45 15 169 0 144 -1 155 -19 160 -14
3 -18 1 -14 -9 3 -8 1 -14 -5 -14 -14 0 -18 16 -14 56 l4 33 22 -27 c12 -15
30 -38 39 -52z m522 25 c-1 -60 -25 -105 -25 -48 0 17 -3 39 -7 49 -4 11 -3
15 4 11 6 -4 14 4 17 18 10 38 13 30 11 -30z m-545 -35 c0 -5 -5 -10 -11 -10
-5 0 -7 5 -4 10 3 6 8 10 11 10 2 0 4 -4 4 -10z m197 -5 c0 -8 -4 -12 -9 -9
-5 3 -6 10 -3 15 9 13 12 11 12 -6z m711 4 c-2 -6 -8 -10 -13 -10 -5 0 -11 4
-13 10 -2 6 4 11 13 11 9 0 15 -5 13 -11z m-933 -11 c15 -7 25 -19 24 -32 0
-21 -1 -21 -9 -1 -8 18 -9 18 -9 2 -1 -15 -3 -16 -15 -5 -8 7 -12 16 -9 20 2
4 -3 5 -12 2 -11 -5 -14 -2 -9 10 7 19 6 19 39 4z m365 5 c0 -5 -4 -14 -9 -21
-7 -11 -9 -11 -14 1 -3 8 -3 18 0 21 9 8 23 7 23 -1z m-373 -69 c3 -8 -2 -25
-11 -39 -12 -19 -16 -51 -16 -145 0 -100 -2 -120 -15 -120 -13 0 -15 20 -15
124 0 98 -3 126 -15 136 -21 18 -19 46 7 64 23 16 54 7 65 -20z m-277 2 c0 -8
-4 -17 -8 -20 -4 -2 -8 4 -8 15 0 10 4 19 8 19 4 0 8 -6 8 -14z m576 -24 c-9
-9 -37 8 -31 18 5 8 11 7 21 -1 8 -6 12 -14 10 -17z m381 -87 c-1 -47 -5 -85
-9 -85 -5 0 -11 0 -15 0 -5 0 -7 23 -5 50 2 31 -1 50 -7 50 -7 0 -11 -37 -11
-105 0 -87 -3 -105 -15 -105 -12 0 -15 18 -15 104 0 99 1 104 23 110 18 5 20
8 7 16 -19 13 -33 13 -25 0 3 -6 -1 -7 -10 -4 -16 7 -45 -12 -45 -29 0 -6 6
-2 14 9 8 10 18 16 22 11 4 -4 3 -7 -2 -7 -5 0 -8 -29 -8 -65 1 -36 -2 -65 -7
-65 -5 0 -9 5 -9 11 0 5 -3 8 -7 6 -7 -4 -9 64 -4 156 1 26 2 27 17 13 25 -26
110 -16 100 11 -3 8 -2 11 4 8 5 -3 8 -44 7 -90z m-759 35 c7 -11 8 -20 3 -20
-5 0 -7 -31 -5 -70 2 -38 2 -70 0 -70 -2 0 -11 10 -22 22 -10 12 -13 18 -6 14
8 -5 12 0 12 16 0 19 -2 20 -11 8 -9 -12 -9 -11 -4 5 16 44 17 55 6 55 -7 0
-8 8 -1 24 5 13 6 27 3 30 -4 3 -2 6 3 6 5 0 15 -9 22 -20z m105 -2 c8 -30 0
-40 -23 -26 -14 9 -16 16 -9 30 13 24 25 23 32 -4z m-10 -81 c2 -20 -2 -46
-10 -59 -11 -20 -12 -15 -13 47 0 47 3 66 10 59 6 -6 12 -27 13 -47z m647 -58
c0 8 3 11 6 8 4 -4 2 -13 -4 -20 -7 -8 -10 -17 -7 -20 3 -4 2 -5 -2 -2 -4 3
-8 16 -10 28 -2 17 -1 19 7 7 8 -12 10 -13 10 -1z m-750 -90 c-7 -11 -14 -18
-17 -15 -3 3 0 12 7 21 18 21 23 19 10 -6z"/>
<path d="M2984 1819 c-10 -17 13 -36 27 -22 12 12 4 33 -11 33 -5 0 -12 -5
-16 -11z"/>
<path d="M2561 1506 c-12 -14 -5 -26 16 -26 15 0 18 26 4 34 -5 3 -14 0 -20
-8z"/>
<path d="M2694 2229 c-10 -17 13 -36 27 -22 12 12 4 33 -11 33 -5 0 -12 -5
-16 -11z"/>
<path d="M3280 2220 c0 -11 7 -20 15 -20 8 0 15 9 15 20 0 11 -7 20 -15 20 -8
0 -15 -9 -15 -20z"/>
<path d="M3167 2126 c-7 -16 1 -26 20 -26 7 0 13 9 13 20 0 23 -25 27 -33 6z"/>
<path d="M2816 2111 c-7 -11 18 -33 27 -24 4 3 7 12 7 20 0 15 -26 18 -34 4z"/>
<path d="M2780 2211 c0 -10 19 -25 25 -20 1 2 -3 10 -11 17 -8 7 -14 8 -14 3z"/>
<path d="M2690 2096 c0 -10 9 -16 21 -16 24 0 21 23 -4 28 -10 2 -17 -3 -17
-12z"/>
<path d="M2923 1947 c0 -8 6 -14 14 -14 9 0 10 4 2 14 -6 7 -12 13 -14 13 -1
0 -2 -6 -2 -13z"/>
<path d="M3421 1510 c-16 -9 -6 -30 15 -30 15 0 20 25 6 34 -4 2 -14 1 -21 -4z"/>
<path d="M3049 1923 l-24 -28 28 24 c15 14 27 26 27 28 0 8 -8 1 -31 -24z"/>
<path d="M3315 1771 c-8 -15 3 -31 21 -31 9 0 14 7 12 17 -4 20 -24 28 -33 14z"/>
<path d="M3221 1507 c-9 -11 -8 -17 4 -27 12 -10 16 -9 21 5 9 23 -10 40 -25
22z"/>
<path d="M2453 1882 c-9 -5 -6 -12 10 -21 19 -13 21 -12 10 1 -7 8 -10 18 -6
21 9 9 1 8 -14 -1z"/>
<path d="M2720 1886 c0 -2 8 -10 18 -17 15 -13 16 -12 3 4 -13 16 -21 21 -21
13z"/>
<path d="M2761 1506 c-12 -14 -5 -26 16 -26 15 0 18 26 4 34 -5 3 -14 0 -20
-8z"/>
<path d="M2654 1749 c-8 -14 11 -33 25 -25 6 4 11 14 11 22 0 16 -26 19 -36 3z"/>
<path d="M2820 2320 c0 -5 5 -10 11 -10 5 0 7 5 4 10 -3 6 -8 10 -11 10 -2 0
-4 -4 -4 -10z"/>
<path d="M3526 1858 c3 -5 10 -6 15 -3 13 9 11 12 -6 12 -8 0 -12 -4 -9 -9z"/>
<path d="M2325 1810 c-2 -3 5 -6 15 -7 11 -1 22 2 24 5 3 4 -4 8 -15 8 -11 0
-22 -3 -24 -6z"/>
<path d="M2492 1490 c0 -14 2 -19 5 -12 2 6 2 18 0 25 -3 6 -5 1 -5 -13z"/>
<path d="M2505 1440 c3 -5 11 -10 16 -10 6 0 7 5 4 10 -3 6 -11 10 -16 10 -6
0 -7 -4 -4 -10z"/>
<path d="M3713 1303 c0 -9 5 -9 21 -1 21 11 21 11 2 -10 -10 -12 -23 -19 -28
-16 -5 3 -8 -1 -6 -9 2 -8 -16 -36 -40 -61 -47 -50 -47 -48 7 -115 l35 -44
-30 7 c-16 4 -43 23 -60 43 -26 30 -32 33 -37 18 -4 -9 -7 -27 -7 -41 0 -19
-4 -23 -22 -20 -22 3 -23 8 -26 94 l-3 92 27 0 c26 0 26 -1 21 -47 l-5 -48 41
48 c27 30 50 47 65 47 12 0 22 6 22 14 0 15 -28 13 -67 -6 -17 -8 -30 -7 -55
5 -35 17 -58 9 -58 -22 0 -14 -2 -14 -10 -1 -5 8 -10 11 -10 7 0 -5 -10 -1
-22 7 -34 24 -134 22 -147 -3 -6 -10 -9 -20 -8 -22 1 -2 -6 4 -16 14 -10 9
-21 17 -25 17 -4 1 -26 5 -50 9 -37 7 -48 5 -77 -15 -34 -23 -35 -23 -45 -4
-12 22 -54 27 -69 8 -6 -7 -21 -26 -34 -42 -20 -24 -23 -25 -23 -8 0 11 5 18
12 15 6 -2 14 3 18 13 5 12 3 14 -6 7 -18 -13 -28 -11 -72 16 l-39 24 -18 -22
c-15 -18 -19 -40 -19 -102 0 -53 -4 -79 -12 -79 -6 0 -1 -9 12 -20 12 -11 27
-17 31 -14 5 3 9 0 9 -5 0 -16 23 -9 38 12 14 18 38 25 27 7 -7 -11 23 -2 42
12 7 5 14 5 18 -2 3 -5 0 -10 -7 -11 -7 0 0 -5 16 -9 16 -5 33 -7 38 -4 4 3 8
0 8 -7 0 -6 9 0 21 15 18 23 22 24 35 11 9 -8 21 -16 27 -16 14 -2 30 -5 37
-8 17 -8 41 -8 46 0 3 5 10 9 16 9 7 0 6 -6 -2 -15 -8 -9 -8 -15 -2 -15 6 0
14 9 17 21 4 12 12 18 21 15 8 -3 14 -1 14 4 0 6 5 10 11 10 6 0 9 -7 6 -14
-4 -10 -1 -13 9 -9 8 3 14 -1 14 -8 0 -11 3 -11 10 1 8 13 11 13 19 1 7 -11
10 -11 17 2 6 10 18 14 37 10 24 -5 26 -8 15 -22 -12 -14 -11 -14 4 -3 9 8 22
11 28 7 5 -3 10 -1 10 5 0 6 5 8 10 5 8 -5 7 -12 -2 -23 -11 -15 -11 -15 2 -6
8 6 26 11 40 12 14 1 33 11 42 22 18 22 58 21 58 -1 0 -6 -5 -7 -12 -3 -6 4
-8 3 -4 -4 3 -5 3 -12 -1 -15 -5 -2 -3 -3 3 -1 6 1 16 -2 21 -7 6 -6 10 -4 10
5 0 8 -5 12 -10 9 -6 -3 -7 -1 -3 5 3 6 16 9 28 7 12 -3 27 0 34 6 15 12 54 3
54 -13 0 -6 -7 -5 -17 3 -15 11 -16 11 -6 -1 7 -7 25 -15 40 -16 21 -2 24 -1
13 7 -12 8 -10 9 10 8 33 -3 72 10 88 30 12 15 13 14 8 -1 -4 -13 -1 -15 11
-11 12 5 15 2 10 -10 -4 -12 -1 -14 16 -10 12 3 31 5 42 4 14 0 16 2 7 8 -10
6 -10 10 3 21 12 10 18 10 30 0 8 -7 12 -16 9 -21 -3 -5 0 -9 6 -9 6 0 9 -4 5
-9 -3 -5 0 -13 7 -17 7 -4 10 -4 6 1 -9 9 20 34 40 35 6 0 12 -5 12 -11 0 -5
-4 -8 -9 -4 -5 3 -12 1 -15 -4 -7 -11 13 -9 32 2 6 5 16 6 21 2 5 -3 12 -1 16
5 4 6 11 7 17 4 8 -5 9 -1 4 12 -4 10 -4 15 0 11 4 -4 13 -2 20 4 8 7 21 4 43
-9 17 -10 28 -22 25 -25 -4 -4 7 -2 24 2 18 6 48 5 73 0 24 -6 53 -8 65 -5 13
4 25 1 28 -7 4 -8 5 -7 5 3 -2 27 1 40 9 38 4 -2 7 -1 8 2 0 3 6 15 12 27 8
14 9 24 2 28 -15 9 -12 27 3 19 6 -4 2 4 -10 17 -16 17 -20 28 -13 35 14 14
22 56 9 49 -5 -4 -9 -2 -9 3 0 6 -8 13 -17 17 -23 9 -118 17 -110 9 9 -9 -25
-44 -36 -37 -6 3 -7 1 -3 -5 4 -7 3 -12 -3 -12 -6 0 -7 -8 -4 -17 6 -17 6 -17
-10 -1 -9 9 -17 21 -17 26 0 34 -85 57 -96 27 -4 -10 -14 -14 -28 -10 -11 2
-15 2 -8 -1 16 -8 15 -35 -3 -60 -8 -12 -11 -25 -7 -29 4 -5 1 -5 -6 -1 -13 8
-7 46 9 56 11 8 -46 70 -63 70 -7 0 -22 -13 -32 -29 l-20 -29 -19 25 c-17 21
-26 24 -54 20 -40 -7 -63 0 -63 18 0 23 -24 33 -86 37 -43 3 -61 0 -61 -9z
m127 -33 c0 -5 -22 -10 -50 -10 -27 0 -50 5 -50 10 0 6 23 10 50 10 28 0 50
-4 50 -10z m-895 -85 c16 -30 32 -55 35 -55 3 0 18 25 35 55 19 35 36 55 47
55 16 0 18 -10 18 -94 0 -89 -1 -94 -20 -89 -17 4 -20 14 -20 57 l-1 51 -25
-47 c-13 -27 -28 -48 -33 -48 -5 0 -21 20 -35 45 -15 25 -28 45 -29 45 -1 0 0
-24 1 -54 4 -50 2 -55 -17 -53 -19 1 -21 7 -21 78 0 43 -3 84 -6 93 -5 12 0
16 17 16 19 0 31 -12 54 -55z m314 41 c27 -14 51 -53 51 -82 0 -44 -54 -94
-100 -94 -75 0 -127 92 -82 146 36 44 82 55 131 30z m194 3 c12 -7 25 -17 29
-23 13 -19 9 -59 -8 -77 -15 -17 -14 -20 5 -48 l21 -30 -26 3 c-17 2 -32 13
-41 30 -19 37 -53 35 -53 -2 0 -23 -4 -28 -21 -27 -19 1 -20 8 -22 93 l-2 92
48 0 c27 0 58 -5 70 -11z m297 -52 c0 -67 10 -87 46 -87 28 0 34 17 34 92 0
54 2 59 20 56 12 -2 21 -6 20 -10 0 -5 0 -35 0 -68 0 -52 -4 -65 -26 -87 -21
-21 -32 -24 -62 -19 -55 8 -72 35 -72 117 0 62 2 69 20 69 18 0 20 -7 20 -63z
m240 3 c24 -33 45 -60 45 -60 1 0 -1 27 -3 60 -4 56 -3 60 17 60 20 0 21 -5
21 -93 0 -114 -12 -120 -73 -38 l-42 55 -5 -55 c-4 -42 -9 -54 -22 -55 -16 -2
-18 9 -18 92 0 83 2 94 18 94 9 0 37 -27 62 -60z m261 -25 c21 -47 39 -89 39
-94 0 -15 -49 1 -52 16 -4 23 -86 24 -93 2 -5 -15 -44 -33 -52 -25 -2 1 11 34
28 71 17 38 35 79 40 92 5 14 17 23 29 23 17 0 30 -18 61 -85z m186 71 c3 -3
3 -12 0 -20 -5 -11 -13 -13 -36 -6 -21 6 -35 4 -48 -5 -17 -13 -16 -14 10 -24
16 -6 34 -11 41 -11 25 0 49 -38 42 -65 -8 -31 -48 -49 -95 -41 -41 6 -54 17
-45 39 5 13 10 14 25 6 25 -13 71 -8 76 8 2 6 -11 14 -29 18 -43 9 -78 32 -78
51 0 8 12 27 26 41 21 21 32 25 66 20 22 -3 42 -8 45 -11z m-1479 -21 c-3 -3
-9 2 -12 12 -6 14 -5 15 5 6 7 -7 10 -15 7 -18z m852 13 c0 -7 -4 -19 -9 -27
-11 -17 -25 3 -17 24 7 18 26 20 26 3z m-128 -88 c-3 -3 -7 1 -9 8 -3 6 -9 9
-15 6 -5 -3 -4 3 4 15 l13 21 6 -22 c3 -13 4 -25 1 -28z m119 26 c-9 -11 -9
-15 1 -19 8 -3 6 -6 -5 -6 -11 -1 -15 -6 -11 -13 4 -6 3 -8 -3 -5 -15 10 -3
57 14 57 12 0 13 -3 4 -14z m-381 -96 c0 -5 -2 -10 -4 -10 -3 0 -8 5 -11 10
-3 6 -1 10 4 10 6 0 11 -4 11 -10z m110 -30 c0 -5 -7 -7 -15 -4 -8 4 -15 8
-15 10 0 2 7 4 15 4 8 0 15 -4 15 -10z"/>
<path d="M3164 1175 c-13 -21 -15 -31 -6 -50 13 -28 57 -43 81 -28 20 12 27
69 10 89 -19 23 -66 17 -85 -11z m63 -7 c14 -23 13 -46 -3 -52 -22 -8 -34 1
-34 28 0 35 21 48 37 24z"/>
<path d="M3205 1150 c6 -30 16 -40 12 -12 -2 12 -6 24 -10 28 -3 4 -4 -4 -2
-16z"/>
<path d="M3380 1171 c0 -26 4 -31 23 -31 57 1 66 53 9 58 -30 3 -32 1 -32 -27z"/>
<path d="M4178 1162 c-15 -30 -15 -30 13 -34 16 -3 29 -4 29 -2 0 1 -6 16 -14
34 l-13 33 -15 -31z"/>
<path d="M1976 1259 c-16 -4 -42 -5 -58 -2 -40 8 -66 -18 -65 -65 0 -20 4 -43
10 -49 6 -9 4 -15 -6 -19 -21 -8 -39 4 -30 19 9 15 10 97 2 91 -4 -2 -9 3 -13
11 -12 31 -86 7 -86 -28 0 -23 -20 -32 -21 -10 -1 10 -1 22 0 26 1 5 -3 6 -9
2 -5 -3 -13 1 -16 9 -10 25 -58 19 -88 -11 -15 -14 -25 -32 -22 -39 3 -7 -2
-18 -9 -24 -8 -7 -12 -17 -8 -24 4 -6 -2 -4 -12 4 -14 11 -17 11 -11 1 5 -8 3
-17 -5 -23 -11 -8 -10 -9 4 -4 15 5 16 3 7 -15 -16 -30 -20 -59 -8 -59 5 0 8
-7 5 -15 -5 -11 -1 -12 18 -5 17 7 25 6 25 -2 0 -6 9 1 21 16 24 31 36 32 69
9 14 -10 34 -18 45 -18 11 -1 26 -5 34 -9 9 -6 12 -5 8 1 -4 6 0 16 8 23 12
10 16 9 21 -5 4 -10 14 -15 26 -12 14 4 18 2 14 -9 -4 -10 -2 -13 7 -7 6 4 21
9 31 10 11 2 27 10 35 17 13 11 23 11 49 2 18 -6 31 -14 28 -17 -8 -7 80 -2
93 5 10 7 15 1 12 -16 0 -4 7 -4 16 -1 11 4 13 8 5 11 -7 2 -12 8 -12 13 0 4
7 5 17 2 9 -4 14 -2 10 3 -9 16 30 14 43 -2 7 -7 16 -11 21 -8 5 3 9 0 9 -7 0
-8 5 -8 16 2 24 20 57 22 71 3 11 -15 15 -15 43 -1 16 9 27 11 24 5 -5 -8 -1
-9 10 -5 14 6 17 3 12 -9 -5 -14 -4 -15 9 -4 18 15 20 0 3 -19 -11 -11 -10
-13 0 -7 7 4 19 23 27 42 13 32 35 47 35 23 0 -5 6 -7 13 -3 6 3 -1 -5 -17
-18 -20 -17 -26 -27 -17 -32 7 -5 10 -2 9 6 -2 7 5 12 14 12 10 -1 15 3 11 9
-4 7 0 8 11 4 10 -4 23 -7 29 -7 7 0 6 -4 -3 -10 -9 -6 -10 -10 -3 -10 6 0 14
4 18 9 3 6 13 10 23 10 36 1 51 5 47 11 -2 3 5 11 15 18 15 9 21 9 27 -3 5 -8
28 -21 51 -29 24 -9 40 -11 37 -6 -3 6 0 10 7 11 7 0 22 2 33 4 10 2 26 -2 34
-8 12 -10 13 -9 7 1 -5 8 -1 21 10 33 9 10 14 19 10 19 -4 0 -2 8 3 18 6 12 4
23 -9 39 -10 12 -20 20 -22 17 -3 -2 -3 7 -1 21 3 13 9 22 14 20 7 -5 4 35 -3
40 -42 29 -53 32 -96 27 -26 -3 -52 -12 -58 -20 -9 -13 -12 -13 -17 2 -6 16
-33 21 -61 10 -15 -6 -21 -29 -29 -98 -2 -17 -9 -32 -15 -34 -8 -2 -8 6 -1 30
11 41 11 41 -3 32 -7 -5 -8 -3 -4 5 5 7 3 25 -4 41 -11 27 -14 28 -78 27 -47
0 -71 -5 -82 -17 -8 -9 -14 -14 -13 -11 2 2 -5 10 -15 17 -24 19 -127 18 -156
-1 -20 -13 -27 -13 -52 -1 -39 19 -93 25 -128 15z m-295 -51 c7 -18 25 -60 41
-92 15 -33 28 -60 28 -61 0 -9 -53 11 -57 21 -8 22 -90 19 -97 -4 -5 -15 -46
-27 -46 -12 0 2 17 44 37 92 31 72 41 88 59 88 15 0 25 -10 35 -32z m121 -25
c-5 -66 10 -95 46 -91 26 3 27 5 30 76 3 64 5 72 22 72 18 0 20 -7 20 -74 0
-69 -2 -76 -26 -95 -31 -25 -55 -26 -93 -6 -36 18 -41 32 -41 112 0 61 1 64
23 61 20 -3 22 -8 19 -55z m283 43 c59 -25 75 -97 30 -141 -21 -22 -33 -25
-90 -25 l-65 0 0 90 0 90 45 0 c25 0 61 -6 80 -14z m222 -9 c21 -21 21 -76 0
-92 -16 -11 -15 -14 4 -39 12 -15 19 -29 17 -32 -10 -9 -57 16 -68 36 -6 11
-20 20 -30 20 -15 0 -20 -7 -20 -28 0 -21 -5 -28 -20 -28 -19 0 -20 7 -20 94
l0 94 60 -4 c38 -3 67 -10 77 -21z m93 -70 c0 -86 -1 -93 -20 -93 -19 0 -20 7
-20 93 0 86 1 93 20 93 19 0 20 -7 20 -93z m82 27 c2 -51 7 -70 21 -78 34 -21
52 4 55 78 3 58 5 66 22 66 18 0 20 -7 20 -69 0 -89 -19 -116 -80 -116 -61 0
-80 27 -80 116 0 62 2 69 20 69 17 0 19 -8 22 -66z m266 60 c14 -4 22 -13 20
-23 -3 -13 -13 -15 -51 -13 -37 3 -47 1 -47 -11 0 -9 13 -18 33 -22 77 -16 98
-57 50 -95 -45 -35 -135 -16 -119 25 5 14 9 15 20 5 17 -13 81 -10 81 5 0 5
-18 16 -40 23 -54 18 -69 34 -61 67 9 37 58 54 114 39z m52 -158 c0 -2 -8 -10
-17 -17 -16 -13 -17 -12 -4 4 13 16 21 21 21 13z"/>
<path d="M1632 1165 c-17 -36 -15 -40 13 -40 23 0 25 3 20 25 -10 38 -20 43
-33 15z"/>
<path d="M2000 1145 c0 -53 1 -55 28 -55 61 0 94 57 54 93 -10 10 -33 17 -50
17 l-32 0 0 -55z m55 26 c-3 -5 -1 -12 5 -16 16 -10 12 -22 -9 -28 -12 -3 -22
1 -25 10 -4 9 -2 11 6 7 7 -5 9 -2 5 9 -5 13 2 21 21 26 2 1 1 -3 -3 -8z"/>
<path d="M2210 1170 c0 -29 2 -31 33 -28 27 2 32 7 32 28 0 21 -5 26 -32 28
-31 3 -33 1 -33 -28z"/>
<path d="M2831 1114 c0 -11 3 -14 6 -6 3 7 2 16 -1 19 -3 4 -6 -2 -5 -13z"/>
<path d="M2604 1048 c3 -10 -2 -22 -12 -27 -9 -6 -12 -11 -6 -11 20 0 34 24
22 40 -8 12 -9 12 -4 -2z"/>
<path d="M1895 1020 c-3 -6 1 -7 9 -4 18 7 21 14 7 14 -6 0 -13 -4 -16 -10z"/>
<path d="M2637 1019 c7 -7 15 -10 18 -7 3 3 -2 9 -12 12 -14 6 -15 5 -6 -5z"/>
<path d="M2936 1018 c5 -8 61 -4 69 4 3 3 -13 4 -34 4 -22 -1 -37 -4 -35 -8z"/>
<path d="M4280 1020 c-8 -5 -10 -10 -5 -10 6 0 17 5 25 10 8 5 11 10 5 10 -5
0 -17 -5 -25 -10z"/>
<path d="M1557 1009 c7 -7 15 -10 18 -7 3 3 -2 9 -12 12 -14 6 -15 5 -6 -5z"/>
<path d="M1710 1016 c0 -2 9 -6 20 -9 11 -3 18 -1 14 4 -5 9 -34 13 -34 5z"/>
<path d="M2246 1012 c-3 -5 1 -9 9 -9 8 0 12 4 9 9 -3 4 -7 8 -9 8 -2 0 -6 -4
-9 -8z"/>
<path d="M3545 1000 c3 -5 8 -10 11 -10 2 0 4 5 4 10 0 6 -5 10 -11 10 -5 0
-7 -4 -4 -10z"/>
<path d="M3084 973 c-1 -13 -1 -23 0 -21 1 2 7 10 14 19 10 13 10 18 0 22 -8
3 -14 -5 -14 -20z"/>
<path d="M2545 979 c-4 -6 -5 -12 -2 -15 2 -3 7 2 10 11 7 17 1 20 -8 4z"/>
<path d="M2496 967 c3 -10 9 -15 12 -12 3 3 0 11 -7 18 -10 9 -11 8 -5 -6z"/>
<path d="M2690 976 c0 -2 8 -10 18 -17 15 -13 16 -12 3 4 -13 16 -21 21 -21
13z"/>
<path d="M3619 963 c-13 -16 -12 -17 4 -4 9 7 17 15 17 17 0 8 -8 3 -21 -13z"/>
<path d="M3690 970 c0 -5 5 -10 11 -10 5 0 7 5 4 10 -3 6 -8 10 -11 10 -2 0
-4 -4 -4 -10z"/>
<path d="M2013 958 c7 -20 -15 -41 -35 -33 -8 3 -26 1 -41 -4 -17 -7 -28 -7
-32 -1 -10 17 -50 11 -67 -9 -31 -37 -31 -57 3 -92 27 -28 34 -31 51 -20 17
10 24 9 41 -6 21 -18 21 -17 7 1 -14 18 -13 18 10 11 14 -4 27 -7 30 -7 23 0
30 4 24 13 -4 8 1 9 17 3 13 -4 30 -7 37 -7 7 0 11 -7 7 -16 -4 -14 -4 -14 7
-1 18 22 59 24 51 3 -4 -10 -2 -14 4 -10 6 4 14 1 17 -5 3 -7 3 -3 0 10 -4 15
-1 22 10 22 8 0 18 -5 21 -10 4 -7 13 -6 27 1 14 8 28 7 48 -1 29 -12 50 -7
50 11 0 5 -11 9 -24 9 -14 0 -28 5 -31 11 -10 16 3 23 18 11 8 -7 17 -9 20 -5
13 12 7 23 -13 23 -13 0 -20 7 -20 19 0 25 14 34 40 26 29 -9 25 -27 -5 -19
-33 8 -32 -4 1 -16 19 -8 25 -16 21 -30 -3 -11 -1 -23 5 -26 5 -4 -3 -15 -19
-25 -15 -10 -24 -19 -20 -19 4 0 18 7 30 14 23 16 43 16 67 1 13 -8 13 -7 1 8
-7 9 -18 14 -24 10 -6 -3 -7 -1 -3 6 4 6 13 8 19 4 7 -4 32 -8 57 -8 34 0 44
-3 42 -15 -3 -12 0 -12 15 1 10 9 24 14 32 11 8 -3 11 0 7 7 -11 16 10 13 24
-4 12 -14 7 -20 -15 -15 -5 1 -6 -2 -2 -6 4 -4 15 -9 23 -10 9 -1 13 0 10 3
-9 10 15 33 27 26 6 -3 7 -1 3 6 -13 20 -17 79 -6 86 6 4 10 3 9 -2 -4 -21 2
-44 9 -39 5 3 9 -1 9 -8 0 -9 -7 -12 -16 -8 -14 5 -14 3 -3 -11 8 -9 17 -16
20 -15 4 1 15 -2 25 -7 9 -4 30 -4 45 -1 15 4 32 7 39 8 7 1 15 8 17 15 5 12
8 12 20 1 8 -7 12 -16 10 -20 -2 -3 21 -5 51 -4 41 2 54 -1 51 -10 -5 -13 19
-13 31 1 4 4 1 5 -7 1 -9 -5 -8 -2 2 7 10 8 15 17 11 21 -4 4 0 4 9 1 14 -6
16 -2 12 27 -4 25 -1 38 11 48 19 16 48 4 53 -24 3 -12 -4 -16 -28 -16 -28 0
-31 -2 -20 -15 9 -11 17 -12 32 -4 16 9 19 8 16 -3 -3 -7 -15 -15 -29 -16 -26
-4 -52 -22 -30 -22 7 0 9 -5 5 -12 -4 -7 3 -4 15 7 28 24 24 23 47 5 18 -14
18 -14 5 3 -7 9 -9 17 -3 17 14 0 33 -26 25 -34 -4 -4 1 -4 11 0 14 5 15 9 4
15 -8 5 1 6 21 2 26 -4 32 -3 27 6 -6 10 -3 10 12 0 16 -10 24 -10 35 -1 12
10 16 10 20 -1 5 -14 34 -16 52 -5 6 3 26 4 45 2 25 -3 31 -1 20 6 -8 5 -10
10 -5 10 6 0 11 16 11 35 1 24 -3 35 -12 35 -9 0 -14 -12 -14 -35 0 -19 -4
-35 -8 -35 -4 0 -8 19 -7 42 1 34 5 42 23 45 12 1 22 -2 22 -8 0 -5 5 -7 10
-4 8 5 7 11 -1 21 -14 17 -41 18 -57 2 -8 -8 -15 -8 -25 1 -9 7 -23 8 -38 3
-17 -7 -28 -4 -43 9 -13 13 -23 15 -31 9 -7 -5 -15 -7 -18 -3 -4 3 -7 2 -7 -4
0 -6 -9 -9 -20 -6 -11 3 -27 0 -35 -7 -10 -9 -19 -9 -27 -2 -7 6 -39 9 -71 8
-32 -2 -60 1 -63 5 -4 7 -62 39 -71 39 -2 0 -1 -5 3 -12 5 -8 2 -9 -10 -5 -9
4 -15 3 -12 -2 3 -5 -3 -11 -14 -14 -14 -4 -18 -10 -13 -23 5 -13 3 -15 -8 -9
-11 7 -12 6 -3 -6 14 -19 15 -57 2 -65 -6 -4 -31 -9 -55 -11 -48 -4 -66 14
-45 47 6 11 7 21 1 27 -14 14 13 45 34 37 19 -7 23 -40 5 -46 -6 -2 -8 -10 -4
-17 6 -9 11 -9 22 0 7 6 12 15 9 19 -3 5 -1 11 5 15 5 3 10 12 10 18 0 7 -4 6
-11 -3 -9 -12 -10 -11 -6 7 4 16 -1 22 -19 26 -27 5 -64 -17 -64 -39 0 -18
-11 -18 -36 2 -10 8 -13 12 -5 8 9 -4 12 -3 8 3 -11 18 -46 22 -58 7 -12 -15
-34 -20 -25 -5 3 4 -6 6 -19 3 -14 -2 -25 -8 -25 -14 0 -5 -9 -4 -21 2 -11 7
-27 9 -34 6 -8 -3 -24 3 -37 14 -21 17 -24 17 -41 2 -21 -19 -37 -23 -97 -25
-58 -1 -82 4 -98 23 -10 13 -11 12 -6 -5 6 -20 6 -20 -10 0 -14 16 -20 17 -35
8 -15 -10 -23 -8 -42 10 -17 16 -21 17 -16 5z m77 -39 c0 -11 4 -17 10 -14 19
12 40 -16 40 -51 0 -19 -4 -34 -10 -34 -5 0 -10 16 -10 35 0 24 -5 35 -15 35
-10 0 -15 -11 -15 -35 0 -19 -4 -35 -10 -35 -6 0 -10 27 -10 60 0 33 4 60 10
60 6 0 10 -9 10 -21z m250 11 c0 -5 -4 -10 -10 -10 -5 0 -10 5 -10 10 0 6 5
10 10 10 6 0 10 -4 10 -10z m504 -16 c7 -17 1 -18 -24 -2 -16 10 -23 10 -36
-4 -24 -24 -11 -68 20 -68 14 0 26 6 29 13 2 6 8 9 13 4 4 -4 0 -15 -9 -24
-13 -13 -23 -15 -44 -7 -30 10 -39 37 -29 79 9 35 68 41 80 9z m-801 3 c3 -7
3 -25 0 -40 -3 -15 1 -34 8 -43 12 -14 11 -16 -6 -13 -29 6 -43 109 -15 109 4
0 10 -6 13 -13z m510 -24 c-12 -4 -6 -40 10 -61 7 -9 6 -17 -3 -25 -9 -8 -11
-8 -7 -1 4 7 1 14 -7 17 -14 6 -27 71 -19 94 4 9 9 8 21 -4 11 -11 13 -18 5
-20z m569 -1 c-14 -4 -16 -52 -2 -52 6 0 10 -5 10 -11 0 -28 -26 2 -31 37 -9
52 -2 68 19 47 12 -12 13 -18 4 -21z m-1224 6 c22 -22 13 -38 -19 -38 -27 0
-30 -2 -19 -15 9 -11 17 -12 32 -4 16 9 19 8 16 -3 -6 -18 -36 -22 -53 -8 -27
23 -12 80 20 80 6 0 16 -5 23 -12z m89 0 c15 -12 18 -78 3 -78 -5 0 -10 16
-10 36 0 28 -3 35 -17 32 -13 -3 -17 -12 -15 -36 1 -18 -2 -32 -8 -32 -5 0
-10 19 -10 43 0 37 3 43 22 44 12 1 28 -3 35 -9z m193 -23 c0 -24 5 -35 15
-35 10 0 15 11 15 35 0 19 5 35 10 35 6 0 10 -20 10 -44 0 -44 0 -44 -32 -43
-31 2 -33 4 -36 45 -2 25 1 42 7 42 6 0 11 -16 11 -35z m160 -10 c0 -25 -4
-45 -8 -45 -4 0 -7 19 -6 43 2 48 2 47 9 47 3 0 5 -20 5 -45z m78 33 c7 -7 12
-26 12 -44 0 -30 -2 -32 -32 -31 -26 2 -33 6 -33 22 0 13 8 21 23 23 12 2 22
8 22 14 0 6 -10 8 -25 4 -25 -6 -36 8 -12 17 21 9 32 8 45 -5z m79 -5 c3 -7
-3 -9 -16 -6 -29 8 -26 -6 4 -17 28 -11 33 -35 9 -44 -20 -8 -54 2 -54 15 0
12 17 12 25 -1 7 -12 25 -4 25 11 0 5 -9 9 -20 9 -20 0 -28 28 -13 44 10 10
36 3 40 -11z m413 7 c0 -4 -6 -10 -14 -13 -8 -3 -16 -21 -19 -39 -3 -27 -4
-25 -5 12 -2 39 1 46 18 47 11 1 20 -2 20 -7z m158 -35 c3 -36 0 -41 -20 -42
-12 -1 -28 3 -34 8 -17 14 -6 39 16 39 11 0 22 5 26 11 5 8 -1 10 -20 7 -14
-3 -26 -2 -26 2 0 13 14 21 35 18 16 -2 21 -12 23 -43z m140 33 c7 -7 12 -21
12 -33 0 -43 -50 -62 -70 -26 -14 27 -13 37 6 55 19 19 36 20 52 4z m-383 -18
c0 -7 -5 -15 -12 -17 -7 -3 -11 4 -10 16 1 23 22 23 22 1z m-215 0 c0 -5 -2
-10 -4 -10 -3 0 -8 5 -11 10 -3 6 -1 10 4 10 6 0 11 -4 11 -10z"/>
<path d="M1855 880 c-4 -6 5 -10 20 -10 15 0 24 4 20 10 -3 6 -12 10 -20 10
-8 0 -17 -4 -20 -10z"/>
<path d="M2375 851 c-3 -5 -1 -12 5 -16 12 -7 30 2 30 16 0 12 -27 12 -35 0z"/>
<path d="M3020 852 c0 -14 11 -21 26 -15 21 8 17 23 -6 23 -11 0 -20 -4 -20
-8z"/>
<path d="M3160 866 c0 -23 22 -41 34 -29 3 4 6 17 6 30 0 16 -6 23 -20 23 -14
0 -20 -7 -20 -24z"/>
<path d="M3430 954 c0 -20 -38 -38 -54 -25 -10 8 -20 6 -40 -10 -15 -12 -25
-24 -22 -27 3 -3 1 -11 -5 -19 -9 -10 -8 -17 2 -30 12 -14 12 -16 0 -8 -10 5
-12 4 -7 -3 4 -7 13 -12 20 -12 8 0 20 -8 27 -17 11 -15 11 -16 -1 -5 -8 6
-19 12 -25 12 -9 -1 24 -24 35 -25 3 0 12 -4 20 -10 12 -7 13 -6 3 7 -13 15
-8 28 9 28 5 0 7 -4 3 -9 -9 -15 15 -25 28 -12 9 9 7 10 -7 5 -13 -5 -17 -4
-12 4 4 7 13 12 20 12 14 0 9 71 -7 81 -15 10 29 53 47 46 9 -3 17 -3 20 1 3
5 -8 13 -25 19 -23 9 -29 9 -29 -3z m-34 -70 c26 -40 -21 -85 -54 -52 -15 15
-16 54 -2 63 6 4 8 11 5 16 -4 5 3 5 16 0 13 -4 28 -16 35 -27z"/>
<path d="M3346 874 c-8 -21 11 -45 30 -37 20 7 14 47 -7 51 -9 2 -19 -5 -23
-14z"/>
<path d="M3837 964 c-3 -3 -3 -13 1 -22 5 -15 4 -15 -12 -2 -16 12 -20 12 -34
-8 -13 -16 -20 -19 -32 -11 -12 9 -11 10 5 4 15 -5 17 -3 8 6 -6 6 -17 8 -25
3 -23 -14 -36 -13 -54 7 -17 18 -17 18 -35 -3 -13 -14 -19 -17 -19 -7 -1 10
-4 9 -11 -3 -13 -23 -44 -24 -35 -2 3 8 2 12 -3 9 -5 -3 -12 -1 -16 5 -12 20
-44 11 -51 -15 -3 -14 -10 -25 -16 -25 -5 0 -6 4 -3 10 3 5 0 7 -8 4 -8 -3
-18 -1 -21 5 -4 6 -14 7 -22 4 -13 -5 -13 -8 -2 -15 10 -7 10 -11 1 -15 -7 -2
-13 -20 -13 -39 0 -26 3 -32 16 -27 10 4 14 14 11 29 -2 13 0 24 5 24 5 0 6 5
3 10 -3 6 1 10 10 10 13 0 16 -8 13 -32 -1 -18 -6 -35 -9 -38 -4 -3 5 -14 19
-24 14 -11 23 -15 20 -10 -3 5 1 16 10 24 20 18 16 19 40 -3 11 -10 26 -15 36
-11 9 3 16 1 16 -6 0 -7 8 -9 21 -5 12 4 19 3 16 -2 -3 -5 3 -9 13 -9 11 0 22
6 24 13 3 8 -1 10 -12 7 -14 -5 -14 -4 -3 4 16 11 44 5 36 -8 -3 -5 0 -12 6
-16 7 -4 10 -3 6 2 -3 5 6 14 19 21 13 6 26 7 29 3 3 -5 22 -7 42 -5 22 2 31
0 23 -5 -9 -5 -5 -8 13 -7 14 1 23 5 21 8 -5 9 46 2 54 -7 4 -4 -1 -4 -10 -1
-22 8 -34 -11 -19 -26 9 -9 11 -8 6 4 -5 13 -1 15 19 12 14 -3 24 -8 21 -12
-2 -4 8 -7 23 -6 15 1 27 5 27 11 0 5 -4 8 -8 6 -9 -3 -2 13 16 36 8 10 13 10
25 0 8 -7 25 -13 36 -13 12 -1 26 -4 32 -8 6 -4 25 0 42 9 23 11 36 12 50 5
14 -7 24 -6 38 4 13 9 23 10 32 3 21 -18 69 -19 76 -2 3 8 9 13 13 11 15 -9 1
98 -15 116 -20 22 -29 22 -37 -4 -5 -16 -10 -18 -18 -10 -9 9 -8 14 2 20 9 6
10 11 2 15 -6 4 -11 2 -11 -4 0 -7 -7 -7 -22 1 -13 6 -20 8 -15 4 4 -5 -3 -20
-15 -33 -13 -14 -16 -22 -8 -18 12 6 12 5 -1 -6 -9 -7 -17 -21 -18 -30 -1 -10
-2 -26 -3 -36 -1 -10 -10 -18 -20 -18 -12 0 -14 4 -7 13 33 39 -27 113 -71 85
-20 -12 -26 -6 -21 21 1 5 -3 6 -9 2 -6 -4 -18 -1 -27 7 -9 7 -14 8 -10 2 3
-6 -7 -18 -22 -27 -23 -14 -33 -14 -55 -4 -14 6 -26 16 -26 20 0 5 -4 5 -10 2
-5 -3 -10 -1 -10 6 0 8 -11 9 -36 4 -24 -4 -34 -3 -29 4 7 12 2 15 -8 5z
m-252 -85 c9 -28 14 -53 11 -56 -3 -3 -8 2 -12 11 -8 20 -54 22 -54 1 0 -8 -4
-15 -10 -15 -5 0 -10 2 -10 4 0 3 20 63 35 104 8 22 23 4 40 -49z m105 1 c0
-60 0 -60 -30 -60 -28 0 -50 22 -50 49 0 17 32 42 46 37 9 -3 14 2 14 14 0 11
5 20 10 20 6 0 10 -27 10 -60z m233 43 c5 -3 6 -16 3 -28 -3 -13 -2 -27 4 -30
22 -14 -10 -45 -45 -45 l-35 0 0 53 c0 30 3 56 6 60 6 6 52 0 67 -10z m352
-20 c9 -20 18 -48 21 -62 5 -24 4 -25 -9 -8 -8 9 -22 17 -32 17 -10 0 -24 -8
-31 -17 -17 -23 -18 -4 0 38 7 19 16 42 19 52 9 25 15 21 32 -20z m58 -27 c1
-31 -1 -56 -5 -56 -5 0 -8 28 -8 62 0 76 11 71 13 -6z m-505 37 c12 -12 13
-18 4 -21 -14 -4 -16 -52 -2 -52 6 0 10 -4 10 -10 0 -5 -10 -9 -22 -8 -20 2
-23 7 -22 42 3 76 4 78 32 49z m234 -21 c-14 -4 -16 -52 -2 -52 6 0 10 -5 10
-11 0 -28 -26 2 -31 37 -9 52 -2 68 19 47 12 -12 13 -18 4 -21z m-292 4 c15
-19 9 -56 -11 -69 -25 -16 -49 -1 -49 31 0 46 35 68 60 38z m200 -18 l13 -33
10 33 c5 17 14 32 20 32 5 0 6 -8 2 -17 -4 -10 -12 -31 -17 -48 -19 -52 -40
-69 -51 -41 -4 10 -1 13 9 9 18 -7 18 17 0 62 -8 19 -11 35 -6 35 4 0 14 -15
20 -32z m180 13 c15 -28 13 -31 -20 -31 -16 0 -30 -5 -30 -11 0 -8 11 -9 31
-5 27 5 30 4 19 -9 -17 -21 -47 -19 -60 4 -14 27 -13 37 6 55 21 21 41 20 54
-3z"/>
<path d="M3547 889 c-7 -28 -6 -31 12 -20 9 6 10 14 4 26 -9 15 -11 15 -16 -6z"/>
<path d="M3637 883 c-12 -11 -7 -41 7 -46 19 -7 26 1 26 30 0 22 -19 31 -33
16z"/>
<path d="M3870 905 c0 -8 9 -15 20 -15 11 0 20 7 20 15 0 8 -9 15 -20 15 -11
0 -20 -7 -20 -15z"/>
<path d="M3870 856 c0 -11 9 -16 26 -16 31 0 28 23 -4 28 -15 2 -22 -2 -22
-12z"/>
<path d="M4247 891 c-3 -14 0 -21 9 -21 16 0 18 9 5 28 -6 10 -10 9 -14 -7z"/>
<path d="M3723 874 c-3 -8 1 -22 9 -30 13 -13 16 -13 27 0 7 9 11 23 7 31 -7
20 -35 19 -43 -1z"/>
<path d="M4100 880 c0 -5 9 -10 20 -10 11 0 20 5 20 10 0 6 -9 10 -20 10 -11
0 -20 -4 -20 -10z"/>
<path d="M1664 949 c-3 -5 -9 -7 -13 -5 -4 3 -7 -21 -7 -53 1 -33 -2 -57 -6
-54 -5 2 -8 0 -8 -6 0 -12 56 -25 70 -16 5 3 18 1 28 -4 26 -14 42 4 42 47 0
22 7 40 18 48 13 10 15 17 6 31 -8 14 -25 18 -68 19 -31 1 -59 -2 -62 -7z m16
-69 c0 -33 -3 -60 -7 -60 -5 0 -6 27 -5 60 5 77 12 77 12 0z m106 47 c4 -4 -2
-7 -14 -7 -20 0 -22 -5 -22 -50 0 -30 -4 -50 -11 -50 -7 0 -10 18 -7 50 2 42
0 50 -14 50 -10 0 -18 4 -18 9 0 11 75 9 86 -2z"/>
<path d="M2600 945 c-7 -9 -11 -17 -9 -20 3 -2 10 5 17 15 14 24 10 26 -8 5z"/>
<path d="M2640 905 c0 -9 5 -15 11 -13 6 2 11 8 11 13 0 5 -5 11 -11 13 -6 2
-11 -4 -11 -13z"/>
<path d="M2703 882 c-1 -10 -3 -22 -5 -29 -2 -6 1 -12 7 -12 5 -1 10 10 11 24
1 28 -11 44 -13 17z"/>
<path d="M2935 880 c-4 -6 5 -10 20 -10 15 0 24 4 20 10 -3 6 -12 10 -20 10
-8 0 -17 -4 -20 -10z"/>
<path d="M3286 874 c-5 -14 -4 -15 9 -4 17 14 19 20 6 20 -5 0 -12 -7 -15 -16z"/>
<path d="M2637 863 c-4 -3 -7 -10 -7 -14 0 -11 29 -19 35 -10 6 11 -20 33 -28
24z"/>
<path d="M3296 807 c3 -10 9 -15 12 -12 3 3 0 11 -7 18 -10 9 -11 8 -5 -6z"/>
<path d="M3455 810 c-3 -5 -1 -10 4 -10 6 0 11 5 11 10 0 6 -2 10 -4 10 -3 0
-8 -4 -11 -10z"/>
<path d="M4015 810 c-3 -6 1 -13 9 -16 9 -3 13 -11 9 -17 -4 -6 -1 -7 7 -2 10
6 10 11 -3 20 -9 7 -14 15 -10 18 3 4 4 7 0 7 -3 0 -9 -5 -12 -10z"/>
<path d="M1658 793 c7 -3 16 -2 19 1 4 3 -2 6 -13 5 -11 0 -14 -3 -6 -6z"/>
<path d="M2031 784 c0 -11 3 -14 6 -6 3 7 2 16 -1 19 -3 4 -6 -2 -5 -13z"/>
<path d="M3780 786 c7 -7 13 -7 20 0 6 6 3 10 -10 10 -13 0 -16 -4 -10 -10z"/>
<path d="M4193 786 c-4 -5 -1 -6 5 -2 6 3 14 2 17 -4 5 -8 11 -8 20 0 8 6 14
7 17 1 1 -5 8 -3 14 3 10 10 3 13 -28 12 -22 -1 -42 -5 -45 -10z"/>
<path d="M4313 785 c0 -7 6 -11 14 -8 7 3 13 6 13 8 0 2 -6 5 -13 8 -8 3 -14
-1 -14 -8z"/>
<path d="M1715 780 c-3 -6 1 -7 9 -4 18 7 21 14 7 14 -6 0 -13 -4 -16 -10z"/>
<path d="M1895 781 c-3 -5 -2 -12 3 -15 5 -3 9 1 9 9 0 17 -3 19 -12 6z"/>
<path d="M2246 773 c-6 -14 -5 -15 5 -6 7 7 10 15 7 18 -3 3 -9 -2 -12 -12z"/>
<path d="M2947 771 c-10 -14 -10 -14 4 -4 10 9 19 9 26 2 6 -6 10 -5 10 4 0
19 -25 17 -40 -2z"/>
<path d="M3130 779 c0 -5 5 -7 10 -4 6 3 10 8 10 11 0 2 -4 4 -10 4 -5 0 -10
-5 -10 -11z"/>
<path d="M3535 780 c-3 -6 1 -7 9 -4 18 7 21 14 7 14 -6 0 -13 -4 -16 -10z"/>
<path d="M4097 779 c7 -7 15 -10 18 -7 3 3 -2 9 -12 12 -14 6 -15 5 -6 -5z"/>
<path d="M1646 772 c-2 -4 4 -8 14 -8 10 0 16 4 14 8 -3 4 -9 8 -14 8 -5 0
-11 -4 -14 -8z"/>
<path d="M2730 776 c0 -2 7 -7 16 -10 8 -3 12 -2 9 4 -6 10 -25 14 -25 6z"/>
<path d="M4145 770 c-3 -6 1 -7 9 -4 18 7 21 14 7 14 -6 0 -13 -4 -16 -10z"/>
<path d="M169 430 c-1 -3 -1 -8 0 -12 0 -5 -4 -8 -10 -8 -13 0 -11 -207 3
-232 5 -10 18 -18 28 -18 11 0 20 -6 20 -12 0 -8 3 -9 8 -3 9 13 153 18 171 6
10 -6 19 -5 27 4 8 7 18 15 24 17 6 2 13 44 15 93 3 50 8 99 11 110 4 17 3 17
-6 5 -9 -12 -10 -11 -5 8 4 13 2 22 -4 22 -6 0 -11 7 -11 14 0 12 -23 15 -135
13 -74 -1 -136 -4 -136 -7z m265 -32 c10 -38 7 -188 -4 -209 -10 -17 -22 -19
-123 -19 -75 0 -117 4 -125 12 -16 16 -16 210 0 226 8 8 51 12 129 12 113 0
117 -1 123 -22z"/>
<path d="M225 390 c3 -5 8 -10 11 -10 2 0 4 5 4 10 0 6 -5 10 -11 10 -5 0 -7
-4 -4 -10z"/>
<path d="M250 390 c0 -5 5 -10 10 -10 6 0 10 5 10 10 0 6 -4 10 -10 10 -5 0
-10 -4 -10 -10z"/>
<path d="M192 283 l3 -88 110 0 110 0 3 88 3 87 -116 0 -116 0 3 -87z m102 55
c-6 -10 -4 -10 8 0 9 7 34 12 55 10 l38 -3 1 -47 c1 -34 -2 -46 -10 -41 -6 4
-19 6 -30 4 -12 -2 -16 1 -11 9 6 9 2 9 -15 0 -20 -10 -22 -10 -17 3 3 8 -3
23 -14 33 -21 19 -26 44 -8 44 5 0 7 -6 3 -12z m-29 -20 c31 -27 31 -39 0 -68
-32 -30 -46 -18 -16 14 l23 24 -21 11 c-12 7 -21 18 -21 26 0 20 5 19 35 -7z
m-39 -37 c-4 -6 -13 -11 -19 -11 -8 0 -7 3 2 9 8 5 10 14 6 22 -6 11 -5 11 5
2 7 -6 9 -16 6 -22z m159 -41 c4 -6 -12 -10 -40 -10 -28 0 -44 4 -40 10 3 6
21 10 40 10 19 0 37 -4 40 -10z m-91 -18 c2 -4 -5 -9 -17 -9 -17 -2 -19 0 -7
7 18 12 18 12 24 2z"/>
<path d="M1257 366 c-4 -9 -15 -13 -27 -11 -11 2 -18 0 -15 -6 4 -5 11 -7 16
-4 5 3 6 -1 3 -9 -3 -9 -11 -13 -18 -9 -6 4 -5 -1 3 -10 11 -14 11 -17 0 -17
-8 0 -6 -5 6 -13 14 -11 15 -16 5 -22 -8 -5 -11 -4 -7 2 9 14 -18 24 -40 16
-16 -6 -16 -5 -4 10 17 21 8 22 -13 1 -9 -8 -16 -11 -16 -5 0 5 5 13 10 16 6
4 8 11 4 16 -3 5 -9 7 -14 4 -5 -3 -11 -1 -15 5 -3 5 -17 10 -30 10 -13 0 -25
3 -28 8 -2 4 -2 2 -1 -5 5 -18 -13 -25 -20 -8 -3 8 -11 15 -18 15 -9 0 -8 -3
2 -10 9 -6 10 -10 3 -10 -6 0 -15 5 -19 11 -4 8 -9 7 -15 -2 -7 -11 -14 -10
-40 5 -31 19 -32 19 -46 0 -11 -15 -15 -16 -22 -5 -6 9 -11 10 -15 2 -9 -14
-26 -14 -26 0 0 5 5 7 12 3 7 -4 8 -3 4 5 -6 8 -11 9 -20 1 -16 -13 -64 -9
-77 6 -12 15 -51 6 -42 -10 4 -6 -1 -5 -10 3 -13 10 -17 10 -17 1 0 -10 -3
-10 -14 -1 -11 9 -16 9 -22 0 -5 -8 -3 -9 6 -4 9 5 11 4 6 -3 -10 -16 -39 -15
-30 1 4 6 4 9 -1 5 -4 -4 -15 -2 -23 5 -9 6 -13 7 -10 2 9 -15 -37 -34 -54
-23 -10 7 -8 8 5 4 12 -4 16 -2 11 5 -6 11 -40 8 -76 -6 -11 -4 -18 -2 -18 5
0 6 5 8 12 4 7 -4 8 -3 4 5 -10 15 -29 3 -22 -15 3 -7 1 -16 -5 -20 -6 -4 -4
-15 6 -31 12 -17 13 -23 4 -17 -11 6 -12 5 -2 -7 7 -9 11 -26 8 -38 -4 -22 -3
-22 20 -7 15 10 25 12 25 6 0 -7 5 -8 13 -3 6 4 31 8 55 9 38 2 42 1 30 -14
-12 -14 -10 -14 12 1 24 16 28 17 51 17 5 0 8 4 5 9 -3 5 2 12 11 15 16 7 36
-11 27 -25 -5 -9 17 -6 33 4 9 5 11 3 7 -6 -3 -8 1 -14 10 -14 8 0 13 4 10 9
-3 4 0 8 5 8 6 0 11 -6 11 -12 0 -10 3 -9 9 1 6 8 14 10 22 5 19 -11 40 -14
34 -4 -3 4 2 11 11 14 8 3 13 2 10 -2 -6 -10 60 -9 70 1 15 15 26 6 13 -10
-13 -15 -12 -15 9 -4 15 8 22 8 22 1 0 -8 6 -8 20 0 24 13 16 33 -9 25 -20 -6
-46 19 -36 35 3 5 15 10 26 10 10 0 19 5 19 11 0 6 -9 8 -20 4 -12 -4 -20 -2
-20 5 0 6 12 10 28 8 23 -3 28 -8 32 -42 3 -22 11 -41 19 -44 9 -3 11 1 7 16
-6 17 -3 19 14 15 11 -3 20 0 20 6 0 6 -9 11 -20 11 -13 0 -20 7 -20 20 0 15
7 20 24 20 14 0 28 -5 31 -10 4 -7 -2 -9 -19 -4 -16 4 -26 2 -26 -4 0 -6 10
-12 22 -14 32 -4 35 -36 5 -47 -14 -6 -28 -16 -33 -23 -4 -7 -4 -10 1 -6 4 4
14 3 22 -4 11 -9 12 -7 7 8 -5 18 -5 18 9 1 10 -12 17 -14 22 -7 3 5 11 7 17
4 7 -4 8 -2 4 4 -4 6 -13 9 -21 5 -8 -3 -15 0 -15 7 0 6 5 8 10 5 6 -3 10 -1
10 5 0 7 7 5 16 -4 19 -19 26 -20 43 -3 10 10 15 8 27 -7 8 -11 14 -15 14 -10
0 6 18 9 40 8 22 -1 42 2 45 6 2 4 16 5 30 2 16 -3 25 0 25 8 0 8 8 4 18 -8
l18 -21 14 22 c8 12 13 27 11 32 -1 6 6 1 17 -10 22 -22 18 -43 -4 -24 -8 6
-14 10 -15 8 -8 -38 -7 -40 7 -28 8 6 14 8 14 3 0 -4 5 -3 12 4 13 13 32 17
25 5 -3 -5 8 -8 23 -8 18 0 25 4 20 10 -5 6 -3 18 4 27 10 13 15 15 24 6 7 -7
12 -9 12 -6 0 4 -7 14 -16 23 -11 11 -13 19 -6 28 8 9 4 19 -13 35 -14 14 -26
19 -30 12 -3 -6 -10 -8 -15 -5 -4 3 -13 -1 -19 -9 -6 -7 -22 -11 -36 -8 -16 3
-25 0 -25 -8 0 -7 7 -10 15 -6 8 3 15 1 15 -4 0 -6 -6 -10 -14 -10 -9 0 -16
-13 -19 -32 l-4 -33 -1 33 c-1 22 -7 32 -18 32 -8 0 -12 5 -9 10 3 6 -1 13 -9
16 -9 3 -13 11 -10 16 4 6 -2 7 -16 3 -17 -6 -21 -4 -15 6 5 8 -1 6 -12 -4
-17 -15 -23 -16 -30 -5 -4 7 -15 19 -24 26 -14 10 -18 10 -22 -2z m-468 -63
c7 10 18 17 24 17 5 0 2 -9 -7 -19 -11 -12 -14 -21 -7 -26 6 -3 16 -15 21 -25
8 -16 8 -18 -4 -14 -9 3 -18 14 -21 25 -8 25 -25 24 -25 -1 0 -11 -4 -20 -9
-20 -7 0 -8 96 -1 110 1 3 5 -10 9 -29 5 -31 7 -33 20 -18z m491 37 c0 -5 -4
-10 -10 -10 -5 0 -10 5 -10 10 0 6 5 10 10 10 6 0 10 -4 10 -10z m282 -33 c-2
-5 -10 0 -18 10 -20 26 -17 36 4 16 11 -10 17 -22 14 -26z m-696 -47 c9 0 14
11 14 30 0 17 5 30 10 30 15 0 12 -43 -4 -66 -20 -26 -51 -7 -52 32 -2 44 11
54 14 12 2 -25 8 -38 18 -38z m-288 18 c2 -22 -1 -38 -7 -38 -6 0 -12 17 -12
38 l-2 37 -7 -40 c-7 -38 -7 -38 -9 -8 -2 46 -19 50 -24 6 l-4 -38 -1 43 c-2
43 -2 43 31 40 29 -3 32 -6 35 -40z m77 22 c7 -23 -10 -60 -28 -60 -29 0 -50
53 -30 73 14 15 52 6 58 -13z m80 9 c4 -6 4 -13 0 -17 -3 -3 -10 0 -15 8 -12
20 -27 4 -33 -35 -3 -24 -4 -21 -6 13 -1 38 1 42 23 42 14 0 28 -5 31 -11z
m243 -23 c2 -16 -1 -33 -7 -39 -8 -8 -11 0 -11 26 0 51 -27 51 -33 0 l-4 -38
-1 43 c-2 42 -1 43 26 40 21 -2 28 -9 30 -32z m302 4 c0 -16 5 -30 10 -30 6 0
10 -4 10 -10 0 -5 -13 -10 -30 -10 -16 0 -30 5 -30 10 0 6 6 10 13 10 18 0 15
39 -4 51 -11 7 -9 9 9 9 18 0 22 -6 22 -30z m98 -12 c2 -22 -1 -38 -7 -38 -6
0 -11 16 -11 35 0 19 -4 35 -10 35 -5 0 -10 -13 -10 -29 0 -16 -6 -33 -13 -39
-9 -8 -11 -1 -8 34 3 42 5 45 30 42 22 -3 26 -8 29 -40z m160 6 c2 -22 -2 -33
-14 -38 -22 -8 -44 11 -44 39 0 28 9 37 35 33 14 -2 21 -12 23 -34z m-338 -29
c0 -8 -4 -15 -9 -15 -13 0 -22 16 -14 24 11 11 23 6 23 -9z"/>
<path d="M610 286 c0 -17 5 -26 16 -26 10 0 14 7 12 22 -5 32 -28 35 -28 4z"/>
<path d="M1496 293 c-9 -22 10 -41 25 -26 13 13 5 43 -10 43 -5 0 -12 -8 -15
-17z"/>
<path d="M1417 363 c-9 -2 -15 -9 -12 -14 4 -5 1 -9 -6 -9 -11 0 -11 -2 0 -12
10 -11 14 -10 22 5 11 19 45 23 51 5 3 -7 7 -5 11 6 4 9 3 15 -2 11 -5 -3 -12
-1 -16 5 -6 10 -17 11 -48 3z"/>
<path d="M1166 348 c3 -5 10 -6 15 -3 13 9 11 12 -6 12 -8 0 -12 -4 -9 -9z"/>
<path d="M5736 343 c-3 -8 -3 -20 1 -25 3 -7 1 -8 -6 -4 -6 4 -14 0 -17 -9 -4
-9 -13 -14 -20 -11 -9 3 -11 0 -7 -11 5 -13 2 -15 -15 -11 -12 3 -21 3 -20 -1
2 -18 -3 -32 -10 -27 -5 3 -9 -1 -9 -9 0 -8 4 -12 8 -10 4 3 10 -2 13 -11 3
-8 10 -12 16 -9 5 3 10 1 10 -5 0 -6 11 -15 25 -22 21 -9 23 -14 13 -32 -10
-18 -9 -19 3 -9 12 10 17 8 27 -8 10 -15 16 -18 26 -10 7 6 16 7 20 3 4 -4 7
-2 6 3 -4 20 13 55 26 55 8 0 14 5 14 10 0 6 6 10 13 10 7 0 18 9 25 21 12 18
11 24 -7 40 -12 11 -21 17 -21 13 0 -8 -41 36 -55 60 -14 22 -52 29 -59 9z
m102 -92 c20 -11 30 -20 22 -21 -22 0 -67 -40 -84 -74 l-15 -29 -15 37 c-10
24 -27 42 -50 53 l-36 17 39 23 c21 12 44 36 51 54 l13 31 19 -36 c10 -20 34
-44 56 -55z"/>
<path d="M5769 233 c-13 -16 -12 -17 4 -4 16 13 21 21 13 21 -2 0 -10 -8 -17
-17z"/>
<path d="M1010 270 c0 -5 7 -10 15 -10 8 0 15 5 15 10 0 6 -7 10 -15 10 -8 0
-15 -4 -15 -10z"/>
<path d="M1051 217 c-8 -10 -7 -14 2 -14 8 0 14 6 14 14 0 7 -1 13 -2 13 -2 0
-8 -6 -14 -13z"/>
<path d="M566 209 c2 -4 13 -7 24 -6 23 2 17 10 -10 12 -10 1 -17 -2 -14 -6z"/>
</g>
</svg>
